HIERARCHY
ROOT Hips
{
	OFFSET -14.64140 90.27770 -84.91600
	CHANNELS 6 Xposition Yposition Zposition Zrotation Xrotation Yrotation
	JOINT Spine
	{
		OFFSET 0.00000 13.20850 -1.60440
		CHANNELS 3 Zrotation Xrotation Yrotation
		JOINT Spine1
		{
			OFFSET 0.00000 8.61720 0.00000
			CHANNELS 3 Zrotation Xrotation Yrotation
			JOINT Spine2
			{
				OFFSET 0.00000 8.61720 0.00000
				CHANNELS 3 Zrotation Xrotation Yrotation
				JOINT Spine3
				{
					OFFSET 0.00000 8.61720 0.00000
					CHANNELS 3 Zrotation Xrotation Yrotation
					JOINT Neck
					{
						OFFSET 0.00000 11.07920 1.10790
						CHANNELS 3 Zrotation Xrotation Yrotation
						JOINT Neck1
						{
							OFFSET 0.00000 7.08030 0.00000
							CHANNELS 3 Zrotation Xrotation Yrotation
							JOINT Head
							{
								OFFSET 0.00000 7.08030 0.00000
								CHANNELS 3 Zrotation Xrotation Yrotation
								End site
								{
									OFFSET 0.00000 0.00000 0.00000
								}
							}
						}
					}
					JOINT RightShoulder
					{
						OFFSET -0.01000 7.91370 5.19710
						CHANNELS 3 Zrotation Xrotation Yrotation
						JOINT RightArm
						{
							OFFSET -18.41580 0.00000 0.00000
							CHANNELS 3 Zrotation Xrotation Yrotation
							JOINT RightForeArm
							{
								OFFSET -29.11090 0.00000 0.00000
								CHANNELS 3 Zrotation Xrotation Yrotation
								JOINT RightHand
								{
									OFFSET -24.65040 0.00000 0.00000
									CHANNELS 3 Zrotation Xrotation Yrotation
									JOINT RightHandThumb1
									{
										OFFSET -5.35110 -0.85590 3.97910
										CHANNELS 3 Zrotation Xrotation Yrotation
										JOINT RightHandThumb2
										{
											OFFSET -4.52790 0.00000 0.00000
											CHANNELS 3 Zrotation Xrotation Yrotation
											JOINT RightHandThumb3
											{
												OFFSET -2.46980 0.00000 0.00000
												CHANNELS 3 Zrotation Xrotation Yrotation
												End site
												{
													OFFSET 0.00000 0.00000 0.00000
												}
											}
										}
									}
									JOINT RightHandIndex1
									{
										OFFSET -14.26970 0.00000 2.88140
										CHANNELS 3 Zrotation Xrotation Yrotation
										JOINT RightHandIndex2
										{
											OFFSET -5.48840 0.00000 0.00000
											CHANNELS 3 Zrotation Xrotation Yrotation
											JOINT RightHandIndex3
											{
												OFFSET -3.01860 0.00000 0.00000
												CHANNELS 3 Zrotation Xrotation Yrotation
												End site
												{
													OFFSET 0.00000 0.00000 0.00000
												}
											}
										}
									}
									JOINT RightHandMiddle1
									{
										OFFSET -14.26970 0.00000 -0.09150
										CHANNELS 3 Zrotation Xrotation Yrotation
										JOINT RightHandMiddle2
										{
											OFFSET -6.17440 0.00000 0.00000
											CHANNELS 3 Zrotation Xrotation Yrotation
											JOINT RightHandMiddle3
											{
												OFFSET -3.56740 0.00000 0.00000
												CHANNELS 3 Zrotation Xrotation Yrotation
												End site
												{
													OFFSET 0.00000 0.00000 0.00000
												}
											}
										}
									}
									JOINT RightHandRing1
									{
										OFFSET -12.69180 0.00000 -3.06430
										CHANNELS 3 Zrotation Xrotation Yrotation
										JOINT RightHandRing2
										{
											OFFSET -5.62560 0.00000 0.00000
											CHANNELS 3 Zrotation Xrotation Yrotation
											JOINT RightHandRing3
											{
												OFFSET -3.56740 0.00000 0.00000
												CHANNELS 3 Zrotation Xrotation Yrotation
												End site
												{
													OFFSET 0.00000 0.00000 0.00000
												}
											}
										}
									}
									JOINT RightHandPinky1
									{
										OFFSET -11.11390 0.00000 -6.03720
										CHANNELS 3 Zrotation Xrotation Yrotation
										JOINT RightHandPinky2
										{
											OFFSET -4.52790 0.00000 0.00000
											CHANNELS 3 Zrotation Xrotation Yrotation
											JOINT RightHandPinky3
											{
												OFFSET -2.46980 0.00000 0.00000
												CHANNELS 3 Zrotation Xrotation Yrotation
												End site
												{
													OFFSET 0.00000 0.00000 0.00000
												}
											}
										}
									}
								}
							}
						}
					}
					JOINT LeftShoulder
					{
						OFFSET 0.01000 7.91370 5.19710
						CHANNELS 3 Zrotation Xrotation Yrotation
						JOINT LeftArm
						{
							OFFSET 18.41580 0.00000 0.00000
							CHANNELS 3 Zrotation Xrotation Yrotation
							JOINT LeftForeArm
							{
								OFFSET 29.11090 0.00000 0.00000
								CHANNELS 3 Zrotation Xrotation Yrotation
								JOINT LeftHand
								{
									OFFSET 24.65040 0.00000 0.00000
									CHANNELS 3 Zrotation Xrotation Yrotation
									JOINT LeftHandThumb1
									{
										OFFSET 5.35110 -0.85590 3.97910
										CHANNELS 3 Zrotation Xrotation Yrotation
										JOINT LeftHandThumb2
										{
											OFFSET 4.52790 0.00000 0.00000
											CHANNELS 3 Zrotation Xrotation Yrotation
											JOINT LeftHandThumb3
											{
												OFFSET 2.46980 0.00000 0.00000
												CHANNELS 3 Zrotation Xrotation Yrotation
												End site
												{
													OFFSET 0.00000 0.00000 0.00000
												}
											}
										}
									}
									JOINT LeftHandIndex1
									{
										OFFSET 14.26970 0.00000 2.88140
										CHANNELS 3 Zrotation Xrotation Yrotation
										JOINT LeftHandIndex2
										{
											OFFSET 5.48840 0.00000 0.00000
											CHANNELS 3 Zrotation Xrotation Yrotation
											JOINT LeftHandIndex3
											{
												OFFSET 3.01860 0.00000 0.00000
												CHANNELS 3 Zrotation Xrotation Yrotation
												End site
												{
													OFFSET 0.00000 0.00000 0.00000
												}
											}
										}
									}
									JOINT LeftHandMiddle1
									{
										OFFSET 14.26970 0.00000 -0.09150
										CHANNELS 3 Zrotation Xrotation Yrotation
										JOINT LeftHandMiddle2
										{
											OFFSET 6.17440 0.00000 0.00000
											CHANNELS 3 Zrotation Xrotation Yrotation
											JOINT LeftHandMiddle3
											{
												OFFSET 3.56740 0.00000 0.00000
												CHANNELS 3 Zrotation Xrotation Yrotation
												End site
												{
													OFFSET 0.00000 0.00000 0.00000
												}
											}
										}
									}
									JOINT LeftHandRing1
									{
										OFFSET 12.69180 0.00000 -3.06430
										CHANNELS 3 Zrotation Xrotation Yrotation
										JOINT LeftHandRing2
										{
											OFFSET 5.62560 0.00000 0.00000
											CHANNELS 3 Zrotation Xrotation Yrotation
											JOINT LeftHandRing3
											{
												OFFSET 3.56740 0.00000 0.00000
												CHANNELS 3 Zrotation Xrotation Yrotation
												End site
												{
													OFFSET 0.00000 0.00000 0.00000
												}
											}
										}
									}
									JOINT LeftHandPinky1
									{
										OFFSET 11.11390 0.00000 -6.03720
										CHANNELS 3 Zrotation Xrotation Yrotation
										JOINT LeftHandPinky2
										{
											OFFSET 4.52790 0.00000 0.00000
											CHANNELS 3 Zrotation Xrotation Yrotation
											JOINT LeftHandPinky3
											{
												OFFSET 2.46980 0.00000 0.00000
												CHANNELS 3 Zrotation Xrotation Yrotation
												End site
												{
													OFFSET 0.00000 0.00000 0.00000
												}
											}
										}
									}
								}
							}
						}
					}
					JOINT pCube4
					{
						OFFSET 0.00000 10.91090 1.10790
						CHANNELS 3 Zrotation Xrotation Yrotation
						End site
						{
							OFFSET 0.00000 0.00000 0.00000
						}
					}
				}
			}
		}
	}
	JOINT RightUpLeg
	{
		OFFSET -9.98440 0.00000 0.00000
		CHANNELS 3 Zrotation Xrotation Yrotation
		JOINT RightLeg
		{
			OFFSET 0.00000 -42.11790 0.00000
			CHANNELS 3 Zrotation Xrotation Yrotation
			JOINT RightFoot
			{
				OFFSET 0.00000 -45.00020 -0.00000
				CHANNELS 3 Zrotation Xrotation Yrotation
				JOINT RightForeFoot
				{
					OFFSET 0.00000 -3.74820 0.00000
					CHANNELS 3 Zrotation Xrotation Yrotation
					JOINT RightToeBase
					{
						OFFSET 0.00000 0.06320 14.43120
						CHANNELS 3 Zrotation Xrotation Yrotation
						End site
						{
							OFFSET 0.00000 0.00000 0.00000
						}
					}
				}
			}
		}
	}
	JOINT LeftUpLeg
	{
		OFFSET 9.98440 0.00000 0.00000
		CHANNELS 3 Zrotation Xrotation Yrotation
		JOINT LeftLeg
		{
			OFFSET 0.00000 -42.11800 0.00000
			CHANNELS 3 Zrotation Xrotation Yrotation
			JOINT LeftFoot
			{
				OFFSET 0.00000 -45.00070 0.00000
				CHANNELS 3 Zrotation Xrotation Yrotation
				JOINT LeftForeFoot
				{
					OFFSET 0.00000 -3.74820 0.00000
					CHANNELS 3 Zrotation Xrotation Yrotation
					JOINT LeftToeBase
					{
						OFFSET 0.00000 0.06330 14.43110
						CHANNELS 3 Zrotation Xrotation Yrotation
						End site
						{
							OFFSET 0.00000 0.00000 0.00000
						}
					}
				}
			}
		}
	}
}
MOTION
Frames: 7
Frame Time: 0.050000
0.0 0.0 0.0 -0.0 0.0 -0.0 -5.685240176163069 8.29211561416511 0.025499301436239567 -0.7484974850900354 2.883336512260099 0.36432742084261893 -0.9238168860494774 0.3910854071388305 -1.5460164427884997 -0.4331246562090422 0.4911478777512013 -1.4152116892069788 -1.3168683234619507 6.827232133298886 2.1714154171554974 -0.25330123841398733 -0.8140340831694569 0.28939053830335065 -0.7026511734583265 -13.847905015996647 0.07752311089869804 9.825494034953367 -1.7334370210684813 -10.217601999729977 52.858083141948946 10.982156198211284 11.276503771971838 -29.773123099371087 8.124396876389014 73.61685397563832 27.18771866771197 0.21983141079132232 -5.892758831730381 0.6662 0.2057 17.0925 -0.0 0.0 -33.8039 0.0 -0.0 -33.8039 -34.8611 0.0 -0.0 -0.0 -0.0 -0.0 -0.0 -0.0 -0.0 -39.5292 -0.0 -0.0 0.0001 -0.0 -0.0 0.0 -0.0 -0.0 -39.836 0.0 -0.0 -0.0 0.0 0.0 -0.0 0.0 0.0 -51.5202 0.0 -0.0 0.0 0.0 -0.0 -0.0 0.0 -0.0 -4.544613987376608 -0.7299921916197905 10.18809388391712 -48.7849027001387 23.09396396818871 -24.34058786614096 21.263949662315806 0.2673085314985576 -96.37969243326462 -14.787118995705988 0.42957628582545093 -1.6834956247402226 -11.4004 0.4367 -2.1684 -0.0 0.0 51.662 -0.0 0.0 51.662 51.1458 -0.0 -0.0 0.0 -0.0 0.0 -0.0 -0.0 -0.0 54.7253 -0.0 -0.0 0.0 -0.0 0.0 0.0 -0.0 0.0 52.0182 -0.0 -0.0 -0.0 0.0 0.0 0.0 -0.0 0.0 53.1081 0.0 -0.0 -0.0 0.0 -0.0 -0.0 0.0 -0.0 -0.0 -0.0 0.0 -10.7723 -22.4021 0.7241 0.0 71.1458 0.0011 6.4424 -4.2818 -1.0868 0.0 -0.0 0.0 -0.0 -3.537 0.0 -5.7053 -14.9258 11.3918 0.0001 32.3095 -0.0187 4.7164 -11.0815 7.5774 0.0 -0.0 0.0 -0.0 -7.085 0.0
0.0 0.0 0.0 -0.0 0.0 -0.0 -5.478879013211769 8.297487078350526 -0.03767306725740014 -0.7351732909206012 2.884458679294027 0.3621696800544729 -0.8957897128669754 0.4234724888221062 -1.5458668502255564 -0.3952182169597961 0.5056944883772588 -1.400710499236157 -1.3120135996263593 6.642632820495834 2.058769566354049 -0.2349867412440805 -0.8962018701651479 0.167946455903329 -0.6645699874240051 -13.99202143443394 0.06076540298576275 10.238323853894984 -1.8313329746633138 -10.372230983018905 54.832725778461274 13.253065506172504 8.55435121637332 -29.306532730949623 8.298498215163523 73.91469619841428 27.319512943390194 0.1777555844516281 -6.104320390963871 0.6662 0.2057 17.0925 -0.0 0.0 -33.8039 0.0 -0.0 -33.8039 -34.8611 0.0 -0.0 -0.0 -0.0 -0.0 -0.0 -0.0 -0.0 -39.5292 -0.0 -0.0 0.0001 -0.0 -0.0 0.0 -0.0 -0.0 -39.836 0.0 -0.0 -0.0 0.0 0.0 -0.0 0.0 0.0 -51.5202 0.0 -0.0 0.0 0.0 -0.0 -0.0 0.0 -0.0 -4.784700220265512 -0.7707174322851525 10.248176345284746 -49.99029936077306 25.118637900707164 -22.741554614056085 19.266603495268377 0.37826700612900244 -97.68830838938234 -15.209246780045081 0.43951478945484534 -1.5435729252660517 -11.4004 0.4367 -2.1684 -0.0 0.0 51.662 -0.0 0.0 51.662 51.1458 -0.0 -0.0 0.0 -0.0 0.0 -0.0 -0.0 -0.0 54.7253 -0.0 -0.0 0.0 -0.0 0.0 0.0 -0.0 0.0 52.0182 -0.0 -0.0 -0.0 0.0 0.0 0.0 -0.0 0.0 53.1081 0.0 -0.0 -0.0 0.0 -0.0 -0.0 0.0 -0.0 -0.0 -0.0 0.0 -10.7723 -22.4021 0.7241 0.0 71.1458 0.0011 6.4424 -4.2818 -1.0868 0.0 -0.0 0.0 -0.0 -3.537 0.0 -5.7053 -14.9258 11.3918 0.0001 32.3095 -0.0187 4.7164 -11.0815 7.5774 0.0 -0.0 0.0 -0.0 -7.085 0.0
0.0 0.0 0.0 -0.0 0.0 -0.0 -5.389692382558906 8.297372652683205 -0.062059229038764915 -0.735942309209139 2.8793890735378493 0.3622308301939164 -0.8884654358260358 0.4424465177980987 -1.5510116861251892 -0.35974932071211285 0.5391525182570627 -1.3980354896516232 -1.2932265862663828 6.527767711231844 1.9605065971882623 -0.22577323903415528 -0.9317460123791922 -0.03167995237026333 -0.6338172788622366 -14.061843638272846 0.04232179198796919 10.467021289041359 -1.8838863851499401 -10.423992709225914 56.105679559936355 15.242478653607204 6.981278421455498 -29.38022001284197 8.285001810625266 74.36716365445763 27.1890179368898 0.16444025369421825 -6.211139710002303 0.6662 0.2057 17.0925 -0.0 0.0 -33.8039 0.0 -0.0 -33.8039 -34.8611 0.0 -0.0 -0.0 -0.0 -0.0 -0.0 -0.0 -0.0 -39.5292 -0.0 -0.0 0.0001 -0.0 -0.0 0.0 -0.0 -0.0 -39.836 0.0 -0.0 -0.0 0.0 0.0 -0.0 0.0 0.0 -51.5202 0.0 -0.0 0.0 0.0 -0.0 -0.0 0.0 -0.0 -4.940866400035726 -0.7968940797728571 10.259920686461996 -50.653011180975064 26.528129430514305 -21.80625785863188 18.103732278581486 0.4385851151275227 -98.27177180954018 -15.046201607901178 0.4416993900178953 -1.475411994222449 -11.4004 0.4367 -2.1684 -0.0 0.0 51.662 -0.0 0.0 51.662 51.1458 -0.0 -0.0 0.0 -0.0 0.0 -0.0 -0.0 -0.0 54.7253 -0.0 -0.0 0.0 -0.0 0.0 0.0 -0.0 0.0 52.0182 -0.0 -0.0 -0.0 0.0 0.0 0.0 -0.0 0.0 53.1081 0.0 -0.0 -0.0 0.0 -0.0 -0.0 0.0 -0.0 -0.0 -0.0 0.0 -10.7723 -22.4021 0.7241 0.0 71.1458 0.0011 6.4424 -4.2818 -1.0868 0.0 -0.0 0.0 -0.0 -3.537 0.0 -5.7053 -14.9258 11.3918 0.0001 32.3095 -0.0187 4.7164 -11.0815 7.5774 0.0 -0.0 0.0 -0.0 -7.085 0.0
0.0 0.0 0.0 -0.0 0.0 -0.0 -5.26546504374243 8.302596046512198 -0.09429659074639973 -0.7369517858478126 2.8749820486928392 0.36389652367591463 -0.8776949775168913 0.46187733653527263 -1.5047519599381602 -0.3520653642477192 0.5644528559656352 -1.3795375873780193 -1.29506917192689 6.465938125994449 1.9270550860537314 -0.22147652739916318 -0.9705065090439625 -0.10027952899413291 -0.6148474792064973 -14.147149623530145 0.035301605902436965 10.569233355753907 -1.9048175686961315 -10.434189972754524 57.5189655742693 16.701526733478406 6.133478475929327 -29.205554230257235 8.234155743729836 74.5860838925165 26.83967558415152 0.15240269782934965 -6.230666067133741 0.6662 0.2057 17.0925 -0.0 0.0 -33.8039 0.0 -0.0 -33.8039 -34.8611 0.0 -0.0 -0.0 -0.0 -0.0 -0.0 -0.0 -0.0 -39.5292 -0.0 -0.0 0.0001 -0.0 -0.0 0.0 -0.0 -0.0 -39.836 0.0 -0.0 -0.0 0.0 0.0 -0.0 0.0 0.0 -51.5202 0.0 -0.0 0.0 0.0 -0.0 -0.0 0.0 -0.0 -5.01346118833088 -0.808440095036208 10.266642873935794 -51.56665953738907 27.5436938785663 -21.190888188556123 17.546823301164128 0.4622139995878486 -98.69744172752237 -14.67852896202231 0.4328294958000348 -1.4826765062088518 -11.4004 0.4367 -2.1684 -0.0 0.0 51.662 -0.0 0.0 51.662 51.1458 -0.0 -0.0 0.0 -0.0 0.0 -0.0 -0.0 -0.0 54.7253 -0.0 -0.0 0.0 -0.0 0.0 0.0 -0.0 0.0 52.0182 -0.0 -0.0 -0.0 0.0 0.0 0.0 -0.0 0.0 53.1081 0.0 -0.0 -0.0 0.0 -0.0 -0.0 0.0 -0.0 -0.0 -0.0 0.0 -10.7723 -22.4021 0.7241 0.0 71.1458 0.0011 6.4424 -4.2818 -1.0868 0.0 -0.0 0.0 -0.0 -3.537 0.0 -5.7053 -14.9258 11.3918 0.0001 32.3095 -0.0187 4.7164 -11.0815 7.5774 0.0 -0.0 0.0 -0.0 -7.085 0.0
0.0 0.0 0.0 -0.0 0.0 -0.0 -5.21249780388981 8.30821394649696 -0.10689043903667839 -0.7399311224374038 2.8726974562941088 0.3644773637873627 -0.8738918085329366 0.466748134966023 -1.4996467648793985 -0.3526918840572153 0.5780314712224932 -1.3751346456726834 -1.3159088305954216 6.474017859834992 1.9520404315081885 -0.22424598289206296 -0.9784489461965902 -0.032241821829837584 -0.6191649129324389 -14.179048343219899 0.04038156660097465 10.542086223856467 -1.8967636909757957 -10.398052867930947 57.99681891422062 17.313145570277364 6.213356730088087 -28.99707198874083 8.053869812686786 74.75570052164038 26.44772369591884 0.15373975608081875 -6.168280788372525 0.6662 0.2057 17.0925 -0.0 0.0 -33.8039 0.0 -0.0 -33.8039 -34.8611 0.0 -0.0 -0.0 -0.0 -0.0 -0.0 -0.0 -0.0 -39.5292 -0.0 -0.0 0.0001 -0.0 -0.0 0.0 -0.0 -0.0 -39.836 0.0 -0.0 -0.0 0.0 0.0 -0.0 0.0 0.0 -51.5202 0.0 -0.0 0.0 0.0 -0.0 -0.0 0.0 -0.0 -4.932881005828131 -0.7916817778330959 10.238868889960335 -51.71546325820232 27.803326652004042 -21.55322523555154 17.594208891799695 0.30511769924117327 -99.01536999124389 -14.261627482254662 0.42420428977073926 -1.5521304285434099 -11.4004 0.4367 -2.1684 -0.0 0.0 51.662 -0.0 0.0 51.662 51.1458 -0.0 -0.0 0.0 -0.0 0.0 -0.0 -0.0 -0.0 54.7253 -0.0 -0.0 0.0 -0.0 0.0 0.0 -0.0 0.0 52.0182 -0.0 -0.0 -0.0 0.0 0.0 0.0 -0.0 0.0 53.1081 0.0 -0.0 -0.0 0.0 -0.0 -0.0 0.0 -0.0 -0.0 -0.0 0.0 -10.7723 -22.4021 0.7241 0.0 71.1458 0.0011 6.4424 -4.2818 -1.0868 0.0 -0.0 0.0 -0.0 -3.537 0.0 -5.7053 -14.9258 11.3918 0.0001 32.3095 -0.0187 4.7164 -11.0815 7.5774 0.0 -0.0 0.0 -0.0 -7.085 0.0
0.0 0.0 0.0 -0.0 0.0 -0.0 -5.194144224328721 8.3197685069668 -0.11267250917368822 -0.7422039310510097 2.870223656531881 0.36394871642754845 -0.8730120764843378 0.46668276931702984 -1.5309884438896924 -0.35007359915430064 0.5882088565796992 -1.3806924231196855 -1.3372862047795449 6.521432344095627 1.9694071965065008 -0.22729473329545805 -0.9799265099778868 0.0377788683859515 -0.6238494077617799 -14.197017550146994 0.046286550248516065 10.46779859779436 -1.8752145535640268 -10.299637907132139 58.09870828574885 17.391916021270923 6.98555593735181 -28.32301199014408 7.809573704192945 74.66295413454769 26.177584529215192 0.14734366432682544 -6.136734894943677 0.6662 0.2057 17.0925 -0.0 0.0 -33.8039 0.0 -0.0 -33.8039 -34.8611 0.0 -0.0 -0.0 -0.0 -0.0 -0.0 -0.0 -0.0 -39.5292 -0.0 -0.0 0.0001 -0.0 -0.0 0.0 -0.0 -0.0 -39.836 0.0 -0.0 -0.0 0.0 0.0 -0.0 0.0 0.0 -51.5202 0.0 -0.0 0.0 0.0 -0.0 -0.0 0.0 -0.0 -4.792152467377175 -0.7638913274794484 10.137970500912827 -51.51401478404046 27.899314924083498 -22.659954004076173 18.074267437751264 0.039274231243017856 -99.11201901088938 -13.897029567155947 0.41312352868748314 -1.6289345042746461 -11.4004 0.4367 -2.1684 -0.0 0.0 51.662 -0.0 0.0 51.662 51.1458 -0.0 -0.0 0.0 -0.0 0.0 -0.0 -0.0 -0.0 54.7253 -0.0 -0.0 0.0 -0.0 0.0 0.0 -0.0 0.0 52.0182 -0.0 -0.0 -0.0 0.0 0.0 0.0 -0.0 0.0 53.1081 0.0 -0.0 -0.0 0.0 -0.0 -0.0 0.0 -0.0 -0.0 -0.0 0.0 -10.7723 -22.4021 0.7241 0.0 71.1458 0.0011 6.4424 -4.2818 -1.0868 0.0 -0.0 0.0 -0.0 -3.537 0.0 -5.7053 -14.9258 11.3918 0.0001 32.3095 -0.0187 4.7164 -11.0815 7.5774 0.0 -0.0 0.0 -0.0 -7.085 0.0
0.0 0.0 0.0 -0.0 0.0 -0.0 -5.151246708731155 8.322820627374375 -0.1297417095901096 -0.7406968778773685 2.87433726092474 0.36210473142512606 -0.8696745934691178 0.46147406918174905 -1.5739864543900173 -0.3563914075784866 0.5829424880046427 -1.3842058697975044 -1.362339037354333 6.6293306876242575 1.9814016162425545 -0.22241819252650907 -0.9876114494575489 0.15935952758394029 -0.6206976318662869 -14.23462678622338 0.05510249457687354 10.287093087053089 -1.8341768576706328 -10.232941688411298 57.95351435111509 16.89496106379046 8.153841036563776 -28.088756964159955 7.7552490628745465 74.33810540532723 26.109930482235768 0.13827209845398758 -6.068631422411304 0.6662 0.2057 17.0925 -0.0 0.0 -33.8039 0.0 -0.0 -33.8039 -34.8611 0.0 -0.0 -0.0 -0.0 -0.0 -0.0 -0.0 -0.0 -39.5292 -0.0 -0.0 0.0001 -0.0 -0.0 0.0 -0.0 -0.0 -39.836 0.0 -0.0 -0.0 0.0 0.0 -0.0 0.0 0.0 -51.5202 0.0 -0.0 0.0 0.0 -0.0 -0.0 0.0 -0.0 -4.54846647125097 -0.7173943114276413 10.042174988542182 -51.18454606263315 27.794155906968843 -24.247980944605132 18.626280998748527 -0.2056340657151839 -99.43135736020946 -13.692214965033454 0.4010193948879552 -1.7273557796670547 -11.4004 0.4367 -2.1684 -0.0 0.0 51.662 -0.0 0.0 51.662 51.1458 -0.0 -0.0 0.0 -0.0 0.0 -0.0 -0.0 -0.0 54.7253 -0.0 -0.0 0.0 -0.0 0.0 0.0 -0.0 0.0 52.0182 -0.0 -0.0 -0.0 0.0 0.0 0.0 -0.0 0.0 53.1081 0.0 -0.0 -0.0 0.0 -0.0 -0.0 0.0 -0.0 -0.0 -0.0 0.0 -10.7723 -22.4021 0.7241 0.0 71.1458 0.0011 6.4424 -4.2818 -1.0868 0.0 -0.0 0.0 -0.0 -3.537 0.0 -5.7053 -14.9258 11.3918 0.0001 32.3095 -0.0187 4.7164 -11.0815 7.5774 0.0 -0.0 0.0 -0.0 -7.085 0.0
